<?xml version="1.0" standalone="no"?>
<!DOCTYPE svg PUBLIC "-//W3C//DTD SVG 20010904//EN"
 "http://www.w3.org/TR/2001/REC-SVG-20010904/DTD/svg10.dtd">
<svg version="1.0" xmlns="http://www.w3.org/2000/svg"
 width="120.000000pt" height="135.000000pt" viewBox="0 0 120.000000 135.000000"
 preserveAspectRatio="xMidYMid meet">

<g transform="translate(0.000000,135.000000) scale(0.100000,-0.100000)"
fill="#000000" stroke="none">
<path d="M515 1136 c-38 -16 -53 -35 -61 -74 -6 -30 -5 -32 22 -32 16 1 40 7
54 15 14 8 37 14 51 15 15 0 32 7 39 15 7 8 19 15 26 15 26 0 14 18 -26 39
-47 24 -63 25 -105 7z m82 -32 c2 -6 -16 -15 -39 -21 -24 -6 -51 -14 -62 -18
-16 -7 -17 -6 -7 14 7 12 22 26 34 31 28 12 69 8 74 -6z"/>
<path d="M650 1045 c0 -8 -11 -22 -24 -30 -34 -23 -37 -34 -24 -131 11 -87 25
-114 58 -114 33 0 46 26 59 115 10 76 10 90 -4 111 -8 13 -19 24 -24 24 -5 0
-11 9 -14 20 -6 23 -27 27 -27 5z m31 -55 c27 -15 25 -64 -3 -84 -20 -15 -21
-17 -5 -28 13 -10 15 -20 9 -43 -18 -64 -48 -24 -51 68 -1 27 3 37 14 37 8 0
15 5 15 10 0 6 -7 10 -15 10 -27 0 -17 32 13 39 2 1 12 -4 23 -9z"/>
<path d="M474 976 c-3 -8 -4 -25 -2 -38 3 -20 9 -23 42 -23 74 0 76 67 2 73
-25 2 -38 -1 -42 -12z m62 -17 c10 -17 -13 -36 -27 -22 -12 12 -4 33 11 33 5
0 12 -5 16 -11z"/>
<path d="M296 939 c-27 -21 -34 -55 -17 -87 5 -9 15 -31 21 -49 7 -18 20 -35
30 -38 10 -3 20 -14 23 -24 2 -11 17 -27 31 -36 26 -17 28 -17 57 4 l31 23 23
-22 c33 -31 54 -16 24 17 -19 20 -21 27 -11 41 22 31 25 44 16 71 -5 15 -18
27 -30 29 -12 2 -26 14 -32 27 -6 14 -24 27 -39 31 -15 4 -37 13 -48 20 -27
19 -48 17 -79 -7z m89 -27 c36 -13 51 -24 53 -39 2 -14 13 -23 33 -27 32 -6
40 -35 14 -56 -13 -11 -20 -9 -40 10 -34 32 -54 15 -21 -19 26 -27 26 -28 6
-46 -16 -14 -22 -15 -35 -5 -8 7 -15 21 -15 31 0 11 -5 19 -12 19 -20 0 -48
32 -48 56 0 13 -4 26 -10 29 -14 8 -13 38 2 53 15 15 14 15 73 -6z"/>
<path d="M762 918 c-30 -30 -5 -68 45 -68 39 0 60 28 43 60 -12 23 -68 28 -88
8z m65 -24 c5 -15 -28 -27 -40 -15 -5 5 -6 14 -2 21 8 13 37 9 42 -6z"/>
<path d="M868 844 c-51 -27 -76 -114 -43 -148 8 -8 15 -22 15 -30 0 -9 7 -16
15 -16 8 0 15 6 15 14 0 7 7 19 15 26 8 7 15 23 15 35 0 12 7 39 15 58 30 72
13 94 -47 61z m17 -57 c-8 -20 -15 -46 -15 -57 0 -11 -7 -20 -15 -20 -26 0
-19 67 11 97 32 32 38 26 19 -20z"/>
<path d="M637 703 c-14 -16 -36 -35 -48 -44 -28 -20 -20 -65 16 -81 18 -8 25
-19 25 -40 0 -29 1 -29 53 -26 48 3 52 5 55 30 2 17 11 30 23 33 42 14 44 79
3 97 -13 6 -31 22 -39 35 -21 31 -56 29 -88 -4z m71 -31 c2 -15 10 -22 27 -22
12 0 25 -6 28 -14 10 -26 -19 -37 -90 -34 -60 3 -68 5 -68 23 0 14 8 21 28 23
18 2 27 9 27 21 0 38 43 41 48 3z m2 -117 c0 -9 -9 -15 -25 -15 -16 0 -25 6
-25 15 0 9 9 15 25 15 16 0 25 -6 25 -15z"/>
<path d="M412 637 c-31 -33 -30 -85 2 -93 52 -13 104 39 94 93 -5 29 -68 30
-96 0z m68 -21 c0 -8 -7 -22 -16 -30 -8 -9 -22 -16 -30 -16 -17 0 -19 31 -2
48 17 17 48 15 48 -2z"/>
<path d="M262 618 c-7 -7 -12 -19 -12 -27 0 -9 -7 -25 -15 -35 -21 -28 -18
-53 10 -81 67 -68 157 8 111 93 -8 15 -17 35 -20 45 -6 20 -55 24 -74 5z m63
-59 c21 -46 13 -72 -24 -77 -43 -7 -68 41 -36 68 8 7 15 21 15 31 0 33 26 20
45 -22z"/>
<path d="M785 520 l-101 -100 -57 0 c-51 0 -57 2 -57 20 0 35 -45 72 -83 68
-31 -3 -32 -5 -31 -45 l1 -43 -59 0 -58 0 0 -90 0 -90 260 0 260 0 0 82 0 81
60 63 c66 69 73 92 35 129 -41 42 -60 33 -170 -75z m146 60 c31 -17 22 -41
-38 -102 -56 -57 -59 -58 -113 -58 l-55 0 86 85 c47 47 89 85 93 85 4 0 16 -5
27 -10z m-403 -112 c15 -15 16 -48 1 -48 -23 0 -49 22 -49 40 0 23 29 27 48 8z
m302 -138 l0 -60 -230 0 -230 0 0 60 0 60 230 0 230 0 0 -60z"/>
<path d="M890 546 c0 -9 7 -16 16 -16 9 0 14 5 12 12 -6 18 -28 21 -28 4z"/>
<path d="M830 486 c0 -9 7 -16 16 -16 17 0 14 22 -4 28 -7 2 -12 -3 -12 -12z"/>
</g>
</svg>
