<svg xmlns="http://www.w3.org/2000/svg" version="1.1" width="301px" height="102px" style="shape-rendering:geometricPrecision; text-rendering:geometricPrecision; image-rendering:optimizeQuality; fill-rule:evenodd; clip-rule:evenodd" xmlns:xlink="http://www.w3.org/1999/xlink">
  <g>
    <path style="opacity:0.949" fill="#39484d" d="M 214.5,20.5 C 216.265,19.5386 218.265,19.2053 220.5,19.5C 220.577,20.7498 221.244,21.5831 222.5,22C 221.944,22.3826 221.611,22.8826 221.5,23.5C 221.167,23.5 220.833,23.5 220.5,23.5C 219.596,22.791 219.263,21.791 219.5,20.5C 218.5,20.5 217.5,20.5 216.5,20.5C 215.833,20.5 215.167,20.5 214.5,20.5 Z"/>
  </g>
  <g>
    <path style="opacity:1" fill="#394548" d="M 214.5,20.5 C 215.167,20.5 215.833,20.5 216.5,20.5C 216.5,20.8333 216.5,21.1667 216.5,21.5C 214.014,22.4616 214.014,23.2949 216.5,24C 215.944,24.3826 215.611,24.8826 215.5,25.5C 213.821,25.7148 212.821,25.0481 212.5,23.5C 212.427,21.9731 213.094,20.9731 214.5,20.5 Z"/>
  </g>
  <g>
    <path style="opacity:0.933" fill="#7d8b8f" d="M 216.5,20.5 C 217.5,20.5 218.5,20.5 219.5,20.5C 219.263,21.791 219.596,22.791 220.5,23.5C 219.07,24.5375 217.403,25.2041 215.5,25.5C 215.611,24.8826 215.944,24.3826 216.5,24C 214.014,23.2949 214.014,22.4616 216.5,21.5C 216.5,21.1667 216.5,20.8333 216.5,20.5 Z"/>
  </g>
  <g>
    <path style="opacity:0.102" fill="#beccd0" d="M 220.5,19.5 C 223.034,20.6338 224.367,22.6338 224.5,25.5C 223.5,24.1667 222.5,24.1667 221.5,25.5C 221.5,24.8333 221.5,24.1667 221.5,23.5C 221.611,22.8826 221.944,22.3826 222.5,22C 221.244,21.5831 220.577,20.7498 220.5,19.5 Z"/>
  </g>
  <g>
    <path style="opacity:0.051" fill="#d7dbde" d="M 212.5,23.5 C 212.821,25.0481 213.821,25.7148 215.5,25.5C 216.167,26.1667 216.833,26.8333 217.5,27.5C 216.167,27.5 214.833,27.5 213.5,27.5C 212.722,26.8444 212.056,26.0111 211.5,25C 211.57,24.2352 211.903,23.7352 212.5,23.5 Z"/>
  </g>
  <g>
    <path style="opacity:0.831" fill="#6e797d" d="M 224.5,25.5 C 225.167,25.5 225.5,25.8333 225.5,26.5C 224.508,26.3284 223.842,26.6618 223.5,27.5C 222.167,27.8333 222.167,28.1667 223.5,28.5C 223.5,29.8333 222.833,30.5 221.5,30.5C 221.768,28.901 221.434,27.5676 220.5,26.5C 220.5,25.8333 220.833,25.5 221.5,25.5C 222.5,24.1667 223.5,24.1667 224.5,25.5 Z"/>
  </g>
  <g>
    <path style="opacity:1" fill="#1e2f33" d="M 213.5,27.5 C 214.833,27.5 216.167,27.5 217.5,27.5C 216.602,28.1577 215.602,28.8243 214.5,29.5C 215.243,30.1818 215.909,30.8485 216.5,31.5C 215.5,31.5 214.5,31.5 213.5,31.5C 213.5,30.1667 213.5,28.8333 213.5,27.5 Z"/>
  </g>
  <g>
    <path style="opacity:0.976" fill="#5b676a" d="M 225.5,26.5 C 226.833,29.8333 226.833,33.1667 225.5,36.5C 224.833,35.5 224.167,34.5 223.5,33.5C 223.5,32.8333 223.5,32.1667 223.5,31.5C 224.833,30.5 224.833,29.5 223.5,28.5C 223.5,28.1667 223.5,27.8333 223.5,27.5C 223.842,26.6618 224.508,26.3284 225.5,26.5 Z"/>
  </g>
  <g>
    <path style="opacity:0.969" fill="#475256" d="M 220.5,26.5 C 221.434,27.5676 221.768,28.901 221.5,30.5C 221.5,31.1667 221.5,31.8333 221.5,32.5C 221.5,33.8333 221.5,35.1667 221.5,36.5C 221.5,37.1667 221.167,37.5 220.5,37.5C 219.532,35.3926 219.198,33.0593 219.5,30.5C 219.5,29.8333 219.5,29.1667 219.5,28.5C 219.328,27.5084 219.662,26.8417 220.5,26.5 Z"/>
  </g>
  <g>
    <path style="opacity:0.773" fill="#868e92" d="M 211.5,30.5 C 208.075,30.3668 207.742,31.0335 210.5,32.5C 209.07,32.5792 207.736,32.2458 206.5,31.5C 205.702,31.9569 205.369,32.6236 205.5,33.5C 204.833,32.5 204.167,31.5 203.5,30.5C 203.962,29.1201 204.962,28.4534 206.5,28.5C 208.422,28.8008 210.088,29.4675 211.5,30.5 Z"/>
  </g>
  <g>
    <path style="opacity:0.973" fill="#66747b" d="M 217.5,27.5 C 218.167,27.8333 218.833,28.1667 219.5,28.5C 219.5,29.1667 219.5,29.8333 219.5,30.5C 218.833,30.8333 218.167,31.1667 217.5,31.5C 217.167,31.5 216.833,31.5 216.5,31.5C 215.909,30.8485 215.243,30.1818 214.5,29.5C 215.602,28.8243 216.602,28.1577 217.5,27.5 Z"/>
  </g>
  <g>
    <path style="opacity:1" fill="#5c696b" d="M 233.5,33.5 C 232.833,33.5 232.5,33.8333 232.5,34.5C 231.167,34.5 229.833,34.5 228.5,34.5C 227.402,33.3991 227.235,32.0657 228,30.5C 231.058,29.0344 232.891,30.0344 233.5,33.5 Z"/>
  </g>
  <g>
    <path style="opacity:0.996" fill="#636c6e" d="M 203.5,30.5 C 204.167,31.5 204.833,32.5 205.5,33.5C 206.404,34.209 206.737,35.209 206.5,36.5C 206.672,37.4916 206.338,38.1583 205.5,38.5C 202.965,36.1535 202.298,33.4868 203.5,30.5 Z"/>
  </g>
  <g>
    <path style="opacity:0.188" fill="#cdd5d9" d="M 213.5,27.5 C 213.5,28.8333 213.5,30.1667 213.5,31.5C 214.5,31.5 215.5,31.5 216.5,31.5C 216.833,31.5 217.167,31.5 217.5,31.5C 216.833,32.1667 216.167,32.8333 215.5,33.5C 213.596,33.2624 212.262,32.2624 211.5,30.5C 212.167,29.5 212.833,28.5 213.5,27.5 Z"/>
  </g>
  <g>
    <path style="opacity:1" fill="#2c3b3d" d="M 211.5,30.5 C 212.262,32.2624 213.596,33.2624 215.5,33.5C 215.672,34.4916 215.338,35.1583 214.5,35.5C 213.791,34.596 212.791,34.2627 211.5,34.5C 211.167,33.8333 210.833,33.1667 210.5,32.5C 207.742,31.0335 208.075,30.3668 211.5,30.5 Z"/>
  </g>
  <g>
    <path style="opacity:0.075" fill="#c2cdd4" d="M 223.5,31.5 C 223.5,32.1667 223.5,32.8333 223.5,33.5C 222.596,34.209 222.263,35.209 222.5,36.5C 222.167,36.5 221.833,36.5 221.5,36.5C 221.5,35.1667 221.5,33.8333 221.5,32.5C 222.167,32.1667 222.833,31.8333 223.5,31.5 Z"/>
  </g>
  <g>
    <path style="opacity:1" fill="#33392e" d="M 168.5,33.5 C 169.853,35.1284 169.519,36.4617 167.5,37.5C 166.5,37.5 165.5,37.5 164.5,37.5C 164.5,36.1667 164.5,34.8333 164.5,33.5C 165.833,33.5 167.167,33.5 168.5,33.5 Z"/>
  </g>
  <g>
    <path style="opacity:1" fill="#7ab46d" d="M 93.5,39.5 C 93.5,39.1667 93.5,38.8333 93.5,38.5C 94.3764,38.6309 95.0431,38.2975 95.5,37.5C 93.2573,36.5258 90.924,36.1924 88.5,36.5C 86.9731,36.427 85.9731,37.0937 85.5,38.5C 84.8333,38.5 84.1667,38.5 83.5,38.5C 85.171,35.7461 87.671,34.4128 91,34.5C 93.8139,34.4076 96.1473,35.4076 98,37.5C 98.4561,38.7441 97.9561,39.5774 96.5,40C 95.2506,40.7401 94.2506,40.5735 93.5,39.5 Z"/>
  </g>
  <g>
    <path style="opacity:0.949" fill="#6c7266" d="M 168.5,33.5 C 167.167,33.5 165.833,33.5 164.5,33.5C 164.5,34.8333 164.5,36.1667 164.5,37.5C 162.401,36.6303 162.068,35.297 163.5,33.5C 165.299,32.2121 166.965,32.2121 168.5,33.5 Z"/>
  </g>
  <g>
    <path style="opacity:0.016" fill="#c3ced0" d="M 211.5,34.5 C 212.791,34.2627 213.791,34.596 214.5,35.5C 213.508,35.3284 212.842,35.6618 212.5,36.5C 211.508,36.3284 210.842,36.6618 210.5,37.5C 210.167,37.5 209.833,37.5 209.5,37.5C 209.782,36.2223 210.449,35.2223 211.5,34.5 Z"/>
  </g>
  <g>
    <path style="opacity:0.957" fill="#7e8a8b" d="M 215.5,33.5 C 217.983,35.3115 217.983,37.1448 215.5,39C 217.311,40.0407 217.645,41.2073 216.5,42.5C 216.167,41.5 215.5,40.8333 214.5,40.5C 214.218,39.2223 213.551,38.2223 212.5,37.5C 213.5,37.1667 214.167,36.5 214.5,35.5C 215.338,35.1583 215.672,34.4916 215.5,33.5 Z"/>
  </g>
  <g>
    <path style="opacity:1" fill="#3b9f27" d="M 88.5,36.5 C 90.924,36.1924 93.2573,36.5258 95.5,37.5C 95.0431,38.2975 94.3764,38.6309 93.5,38.5C 91.8333,37.8333 90.1667,37.1667 88.5,36.5 Z"/>
  </g>
  <g>
    <path style="opacity:0.624" fill="#a4d193" d="M 154.5,34.5 C 154.167,34.5 153.833,34.5 153.5,34.5C 152.5,34.5 151.5,34.5 150.5,34.5C 150.5,36.1667 150.5,37.8333 150.5,39.5C 150.167,39.5 149.833,39.5 149.5,39.5C 147.5,39.5 145.5,39.5 143.5,39.5C 145.265,38.5386 147.265,38.2053 149.5,38.5C 149.5,36.8333 149.5,35.1667 149.5,33.5C 151.415,33.2155 153.081,33.5489 154.5,34.5 Z"/>
  </g>
  <g>
    <path style="opacity:0.878" fill="#738384" d="M 233.5,33.5 C 234.833,33.5 236.167,33.5 237.5,33.5C 236.735,36.6702 235.735,39.6702 234.5,42.5C 234.768,40.901 234.434,39.5676 233.5,38.5C 232.266,38.2849 232.266,38.9516 233.5,40.5C 233.44,41.0431 233.107,41.3764 232.5,41.5C 231.824,40.3984 231.158,39.3984 230.5,38.5C 230.414,37.5041 230.748,36.6708 231.5,36C 230.263,35.7679 229.263,35.2679 228.5,34.5C 229.833,34.5 231.167,34.5 232.5,34.5C 233.167,34.5 233.5,34.1667 233.5,33.5 Z"/>
  </g>
  <g>
    <path style="opacity:0.699" fill="#a7d986" d="M 58.5,35.5 C 59.9187,34.5489 61.5853,34.2155 63.5,34.5C 63.5,40.1667 63.5,45.8333 63.5,51.5C 63.1667,51.5 62.8333,51.5 62.5,51.5C 62.5,51.1667 62.5,50.8333 62.5,50.5C 62.5,48.1667 62.5,45.8333 62.5,43.5C 62.5,41.1667 62.5,38.8333 62.5,36.5C 61.4324,35.5655 60.099,35.2322 58.5,35.5 Z"/>
  </g>
  <g>
    <path style="opacity:1" fill="#409b2f" d="M 88.5,36.5 C 90.1667,37.1667 91.8333,37.8333 93.5,38.5C 90.8333,38.5 88.1667,38.5 85.5,38.5C 85.9731,37.0937 86.9731,36.427 88.5,36.5 Z"/>
  </g>
  <g>
    <path style="opacity:0.604" fill="#859293" d="M 206.5,36.5 C 207.391,37.1098 208.391,37.4431 209.5,37.5C 209.5,38.5 209.5,39.5 209.5,40.5C 208.778,40.0825 208.278,39.4158 208,38.5C 207.536,39.0944 207.369,39.7611 207.5,40.5C 206.5,40.1667 205.833,39.5 205.5,38.5C 206.338,38.1583 206.672,37.4916 206.5,36.5 Z"/>
  </g>
  <g>
    <path style="opacity:0.537" fill="#49585c" d="M 212.5,36.5 C 212.5,36.8333 212.5,37.1667 212.5,37.5C 213.551,38.2223 214.218,39.2223 214.5,40.5C 213.167,40.5 211.833,40.5 210.5,40.5C 211.833,39.5 211.833,38.5 210.5,37.5C 210.842,36.6618 211.508,36.3284 212.5,36.5 Z"/>
  </g>
  <g>
    <path style="opacity:0.98" fill="#535e60" d="M 223.5,33.5 C 224.167,34.5 224.833,35.5 225.5,36.5C 225.672,37.4916 225.338,38.1583 224.5,38.5C 223.5,38.5 222.5,38.5 221.5,38.5C 220.833,38.5 220.5,38.1667 220.5,37.5C 221.167,37.5 221.5,37.1667 221.5,36.5C 221.833,36.5 222.167,36.5 222.5,36.5C 223.404,35.791 223.737,34.791 223.5,33.5 Z"/>
  </g>
  <g>
    <path style="opacity:0.427" fill="#abd4a5" d="M 100.5,39.5 C 103.287,38.5233 106.287,38.19 109.5,38.5C 109.5,39.8333 109.5,41.1667 109.5,42.5C 109.167,42.5 108.833,42.5 108.5,42.5C 108.5,41.8333 108.5,41.1667 108.5,40.5C 106.052,39.5269 103.385,39.1936 100.5,39.5 Z"/>
  </g>
  <g>
    <path style="opacity:0.031" fill="#e4f6f6" d="M 221.5,38.5 C 222.5,38.5 223.5,38.5 224.5,38.5C 224.833,39.1667 225.167,39.8333 225.5,40.5C 224.833,40.5 224.167,40.5 223.5,40.5C 222.833,39.8333 222.167,39.1667 221.5,38.5 Z"/>
  </g>
  <g>
    <path style="opacity:0.994" fill="#7bb254" d="M 58.5,35.5 C 60.099,35.2322 61.4324,35.5655 62.5,36.5C 61.5,36.5 60.5,36.5 59.5,36.5C 59.5,39.5 59.5,42.5 59.5,45.5C 59.1667,45.5 58.8333,45.5 58.5,45.5C 58.5,42.1667 58.5,38.8333 58.5,35.5 Z"/>
  </g>
  <g>
    <path style="opacity:1" fill="#7db462" d="M 79.5,42.5 C 79.1667,42.5 78.8333,42.5 78.5,42.5C 78.3893,41.8826 78.056,41.3826 77.5,41C 75.5273,40.5045 73.5273,40.3379 71.5,40.5C 71.5,40.1667 71.5,39.8333 71.5,39.5C 73.2884,38.3775 75.2884,38.2109 77.5,39C 78.9733,39.7096 79.6399,40.8762 79.5,42.5 Z"/>
  </g>
  <g>
    <path style="opacity:1" fill="#7bc16a" d="M 85.5,38.5 C 88.1667,38.5 90.8333,38.5 93.5,38.5C 93.5,38.8333 93.5,39.1667 93.5,39.5C 88.5,38.5 86.5,40.5 87.5,45.5C 87.1667,45.5 86.8333,45.5 86.5,45.5C 86.3259,43.139 85.9926,40.8056 85.5,38.5 Z"/>
  </g>
  <g>
    <path style="opacity:1" fill="#519548" d="M 100.5,39.5 C 103.385,39.1936 106.052,39.5269 108.5,40.5C 107.167,40.5 105.833,40.5 104.5,40.5C 103.209,40.2627 102.209,40.596 101.5,41.5C 101.5,42.5 101.5,43.5 101.5,44.5C 101.167,44.5 100.833,44.5 100.5,44.5C 100.5,42.8333 100.5,41.1667 100.5,39.5 Z"/>
  </g>
  <g>
    <path style="opacity:1" fill="#67a958" d="M 120.5,39.5 C 119.817,41.1765 118.483,41.8432 116.5,41.5C 114.362,40.1919 112.362,40.5252 110.5,42.5C 110.574,40.5891 111.574,39.4224 113.5,39C 116.039,38.2042 118.372,38.3709 120.5,39.5 Z"/>
  </g>
  <g>
    <path style="opacity:1" fill="#519b40" d="M 143.5,39.5 C 145.5,39.5 147.5,39.5 149.5,39.5C 149.5,40.8333 149.5,42.1667 149.5,43.5C 148.609,42.8902 147.609,42.5569 146.5,42.5C 145.5,42.5 144.5,42.5 143.5,42.5C 143.5,41.5 143.5,40.5 143.5,39.5 Z"/>
  </g>
  <g>
    <path style="opacity:1" fill="#439d2b" d="M 150.5,39.5 C 152.308,40.9179 152.975,42.9179 152.5,45.5C 152.167,45.5 151.833,45.5 151.5,45.5C 151.167,43.5 150.833,41.5 150.5,39.5 Z"/>
  </g>
  <g>
    <path style="opacity:0.695" fill="#7f8678" d="M 164.5,37.5 C 165.5,37.5 166.5,37.5 167.5,37.5C 167.833,38.1667 168.167,38.8333 168.5,39.5C 167.167,39.5 165.833,39.5 164.5,39.5C 164.5,40.8333 164.5,42.1667 164.5,43.5C 164.5,46.1667 164.5,48.8333 164.5,51.5C 165.5,51.5 166.5,51.5 167.5,51.5C 167.833,51.5 168.167,51.5 168.5,51.5C 167.081,52.4511 165.415,52.7845 163.5,52.5C 163.221,47.4053 163.555,42.4053 164.5,37.5 Z"/>
  </g>
  <g>
    <path style="opacity:1" fill="#111809" d="M 179.5,39.5 C 179.167,40.1667 178.833,40.8333 178.5,41.5C 176.833,41.5 175.167,41.5 173.5,41.5C 174.99,39.7202 176.99,39.0535 179.5,39.5 Z"/>
  </g>
  <g>
    <path style="opacity:0.978" fill="#505e60" d="M 230.5,38.5 C 231.158,39.3984 231.824,40.3984 232.5,41.5C 233.107,41.3764 233.44,41.0431 233.5,40.5C 233.5,39.8333 233.5,39.1667 233.5,38.5C 234.434,39.5676 234.768,40.901 234.5,42.5C 234.443,43.609 234.11,44.609 233.5,45.5C 232.25,45.4226 231.417,44.756 231,43.5C 230.506,41.8659 230.34,40.1992 230.5,38.5 Z"/>
  </g>
  <g>
    <path style="opacity:1" fill="#56a92e" d="M 67.5,39.5 C 68.5,39.5 69.5,39.5 70.5,39.5C 69.7222,40.1556 69.0556,40.9889 68.5,42C 68.5699,42.7648 68.9033,43.2648 69.5,43.5C 69.5,44.1667 69.5,44.8333 69.5,45.5C 68.8333,45.5 68.1667,45.5 67.5,45.5C 67.5,43.5 67.5,41.5 67.5,39.5 Z"/>
  </g>
  <g>
    <path style="opacity:1" fill="#56b12d" d="M 70.5,39.5 C 70.8333,39.5 71.1667,39.5 71.5,39.5C 71.5,39.8333 71.5,40.1667 71.5,40.5C 71.5,41.5 71.5,42.5 71.5,43.5C 70.8333,43.5 70.1667,43.5 69.5,43.5C 68.9033,43.2648 68.5699,42.7648 68.5,42C 69.0556,40.9889 69.7222,40.1556 70.5,39.5 Z"/>
  </g>
  <g>
    <path style="opacity:1" fill="#67b645" d="M 71.5,40.5 C 73.5273,40.3379 75.5273,40.5045 77.5,41C 78.056,41.3826 78.3893,41.8826 78.5,42.5C 77.1667,42.5 76.5,43.1667 76.5,44.5C 76.1667,44.5 75.8333,44.5 75.5,44.5C 75.5,43.8333 75.1667,43.5 74.5,43.5C 73.5,43.5 72.5,43.5 71.5,43.5C 71.5,42.5 71.5,41.5 71.5,40.5 Z"/>
  </g>
  <g>
    <path style="opacity:1" fill="#59a349" d="M 104.5,40.5 C 105.833,40.5 107.167,40.5 108.5,40.5C 108.5,41.1667 108.5,41.8333 108.5,42.5C 107.508,42.3284 106.842,42.6618 106.5,43.5C 106.5,44.1667 106.167,44.5 105.5,44.5C 105.567,43.0413 105.234,41.7079 104.5,40.5 Z"/>
  </g>
  <g>
    <path style="opacity:1" fill="#57a347" d="M 116.5,41.5 C 115.833,41.5 115.5,41.8333 115.5,42.5C 115.167,42.5 114.833,42.5 114.5,42.5C 113.861,43.0968 113.528,43.9302 113.5,45C 113.387,46.6991 114.053,47.8658 115.5,48.5C 117.844,48.9397 119.844,49.9397 121.5,51.5C 117.003,53.3654 113.336,52.3654 110.5,48.5C 110.5,46.5 110.5,44.5 110.5,42.5C 112.362,40.5252 114.362,40.1919 116.5,41.5 Z"/>
  </g>
  <g>
    <path style="opacity:1" fill="#72b264" d="M 120.5,39.5 C 122.446,40.0347 123.446,41.368 123.5,43.5C 121.304,43.59 119.137,43.9233 117,44.5C 115.624,44.3158 114.791,43.6491 114.5,42.5C 114.833,42.5 115.167,42.5 115.5,42.5C 115.5,41.8333 115.833,41.5 116.5,41.5C 118.483,41.8432 119.817,41.1765 120.5,39.5 Z"/>
  </g>
  <g>
    <path style="opacity:1" fill="#61a451" d="M 135.5,39.5 C 135.704,41.6854 136.37,43.6854 137.5,45.5C 135.901,45.7678 134.568,45.4345 133.5,44.5C 134.833,43.8333 134.833,43.1667 133.5,42.5C 132.5,42.5 131.5,42.5 130.5,42.5C 129.833,42.5 129.5,42.8333 129.5,43.5C 128.609,42.8902 127.609,42.5569 126.5,42.5C 126.167,42.5 125.833,42.5 125.5,42.5C 125.574,40.5891 126.574,39.4224 128.5,39C 131.039,38.2042 133.372,38.3709 135.5,39.5 Z"/>
  </g>
  <g>
    <path style="opacity:1" fill="#73a862" d="M 135.5,39.5 C 137.912,39.6941 138.912,41.0274 138.5,43.5C 138.5,44.1667 138.5,44.8333 138.5,45.5C 138.167,45.5 137.833,45.5 137.5,45.5C 136.37,43.6854 135.704,41.6854 135.5,39.5 Z"/>
  </g>
  <g>
    <path style="opacity:1" fill="#4c9837" d="M 153.5,34.5 C 153.821,40.0262 153.488,45.3595 152.5,50.5C 152.5,48.8333 152.5,47.1667 152.5,45.5C 152.975,42.9179 152.308,40.9179 150.5,39.5C 150.5,37.8333 150.5,36.1667 150.5,34.5C 151.5,34.5 152.5,34.5 153.5,34.5 Z"/>
  </g>
  <g>
    <path style="opacity:1" fill="#1d2719" d="M 168.5,39.5 C 168.5,43.5 168.5,47.5 168.5,51.5C 168.167,51.5 167.833,51.5 167.5,51.5C 167.856,48.224 166.856,45.5573 164.5,43.5C 164.5,42.1667 164.5,40.8333 164.5,39.5C 165.833,39.5 167.167,39.5 168.5,39.5 Z"/>
  </g>
  <g>
    <path style="opacity:1" fill="#485142" d="M 173.5,42.5 C 173.5,42.1667 173.5,41.8333 173.5,41.5C 175.167,41.5 176.833,41.5 178.5,41.5C 178.5,41.8333 178.5,42.1667 178.5,42.5C 175.916,43.0483 174.916,44.715 175.5,47.5C 174.833,45.8333 174.167,44.1667 173.5,42.5 Z"/>
  </g>
  <g>
    <path style="opacity:1" fill="#262e20" d="M 179.5,39.5 C 180.167,39.5 180.833,39.5 181.5,39.5C 182.5,39.8333 183.167,40.5 183.5,41.5C 182.498,43.0109 181.831,44.6776 181.5,46.5C 181.672,47.4916 181.338,48.1583 180.5,48.5C 179.833,48.5 179.5,48.1667 179.5,47.5C 179.634,45.7085 179.301,44.0418 178.5,42.5C 178.5,42.1667 178.5,41.8333 178.5,41.5C 178.833,40.8333 179.167,40.1667 179.5,39.5 Z"/>
  </g>
  <g>
    <path style="opacity:0.894" fill="#596669" d="M 209.5,40.5 C 209.833,40.5 210.167,40.5 210.5,40.5C 211.833,40.5 213.167,40.5 214.5,40.5C 215.5,40.8333 216.167,41.5 216.5,42.5C 216.5,43.1667 216.167,43.5 215.5,43.5C 214.176,41.3339 212.343,41.0006 210,42.5C 208.624,42.3158 207.791,41.6491 207.5,40.5C 207.369,39.7611 207.536,39.0944 208,38.5C 208.278,39.4158 208.778,40.0825 209.5,40.5 Z"/>
  </g>
  <g>
    <path style="opacity:0.894" fill="#505e5e" d="M 223.5,40.5 C 224.167,40.5 224.833,40.5 225.5,40.5C 226.167,40.5 226.5,40.8333 226.5,41.5C 226.5,42.8333 227.167,43.5 228.5,43.5C 228.265,44.0967 227.765,44.4301 227,44.5C 225.989,43.9444 225.156,43.2778 224.5,42.5C 224.167,42.5 223.833,42.5 223.5,42.5C 222.5,43.5 221.5,44.5 220.5,45.5C 220.5,45.8333 220.5,46.1667 220.5,46.5C 220.5,46.8333 220.5,47.1667 220.5,47.5C 220.5,47.8333 220.5,48.1667 220.5,48.5C 217.924,48.2782 217.09,46.9449 218,44.5C 219.73,42.9236 221.563,41.5903 223.5,40.5 Z"/>
  </g>
  <g>
    <path style="opacity:1" fill="#35a225" d="M 102.5,41.5 C 103.289,41.7828 103.956,42.2828 104.5,43C 103.577,45.0408 103.244,47.2075 103.5,49.5C 102.527,47.0521 102.194,44.3854 102.5,41.5 Z"/>
  </g>
  <g>
    <path style="opacity:0.994" fill="#489c39" d="M 114.5,42.5 C 114.791,43.6491 115.624,44.3158 117,44.5C 119.137,43.9233 121.304,43.59 123.5,43.5C 123.5,44.1667 123.5,44.8333 123.5,45.5C 120.028,45.1596 117.361,45.493 115.5,46.5C 115.5,46.8333 115.5,47.1667 115.5,47.5C 115.5,47.8333 115.5,48.1667 115.5,48.5C 114.053,47.8658 113.387,46.6991 113.5,45C 113.528,43.9302 113.861,43.0968 114.5,42.5 Z"/>
  </g>
  <g>
    <path style="opacity:1" fill="#68a55a" d="M 143.5,39.5 C 143.5,40.5 143.5,41.5 143.5,42.5C 142.833,42.5 142.5,42.8333 142.5,43.5C 141.122,45.9702 141.455,48.3035 143.5,50.5C 142.833,50.5 142.167,50.5 141.5,50.5C 141.167,49.8333 140.833,49.1667 140.5,48.5C 140.5,46.5 140.5,44.5 140.5,42.5C 140.5,40.5 141.5,39.5 143.5,39.5 Z"/>
  </g>
  <g>
    <path style="opacity:1" fill="#474e43" d="M 181.5,39.5 C 180.833,39.5 180.167,39.5 179.5,39.5C 176.99,39.0535 174.99,39.7202 173.5,41.5C 173.5,41.8333 173.5,42.1667 173.5,42.5C 172.609,43.1098 171.609,43.4431 170.5,43.5C 170.859,41.629 171.859,40.129 173.5,39C 176.367,38.1993 179.034,38.3659 181.5,39.5 Z"/>
  </g>
  <g>
    <path style="opacity:0.173" fill="#c1cacb" d="M 226.5,41.5 C 227.5,41.8333 228.167,42.5 228.5,43.5C 227.167,43.5 226.5,42.8333 226.5,41.5 Z"/>
  </g>
  <g>
    <path style="opacity:1" fill="#79b669" d="M 83.5,38.5 C 83.2529,41.9387 83.5863,45.272 84.5,48.5C 84.8333,49.1667 85.1667,49.8333 85.5,50.5C 83.9256,50.0629 82.7589,49.0629 82,47.5C 81.3333,44.8333 81.3333,42.1667 82,39.5C 82.3826,38.944 82.8826,38.6107 83.5,38.5 Z"/>
  </g>
  <g>
    <path style="opacity:1" fill="#3a9a2c" d="M 101.5,41.5 C 101.833,41.5 102.167,41.5 102.5,41.5C 102.194,44.3854 102.527,47.0521 103.5,49.5C 103.5,49.8333 103.5,50.1667 103.5,50.5C 101.692,49.0821 101.025,47.0821 101.5,44.5C 101.5,43.5 101.5,42.5 101.5,41.5 Z"/>
  </g>
  <g>
    <path style="opacity:1" fill="#5ca44d" d="M 125.5,42.5 C 125.833,42.5 126.167,42.5 126.5,42.5C 126.401,45.2372 126.735,47.9039 127.5,50.5C 126.5,50.1667 125.833,49.5 125.5,48.5C 125.5,46.5 125.5,44.5 125.5,42.5 Z"/>
  </g>
  <g>
    <path style="opacity:1" fill="#77b86b" d="M 143.5,42.5 C 144.5,42.5 145.5,42.5 146.5,42.5C 145.699,44.0418 145.366,45.7085 145.5,47.5C 144.026,46.5637 143.026,45.2303 142.5,43.5C 142.5,42.8333 142.833,42.5 143.5,42.5 Z"/>
  </g>
  <g>
    <path style="opacity:1" fill="#5aa443" d="M 149.5,39.5 C 149.833,39.5 150.167,39.5 150.5,39.5C 150.833,41.5 151.167,43.5 151.5,45.5C 150.833,45.8333 150.167,46.1667 149.5,46.5C 149.5,45.5 149.5,44.5 149.5,43.5C 149.5,42.1667 149.5,40.8333 149.5,39.5 Z"/>
  </g>
  <g>
    <path style="opacity:0.039" fill="#e4fdcf" d="M 58.5,35.5 C 58.5,38.8333 58.5,42.1667 58.5,45.5C 58.5,47.5 58.5,49.5 58.5,51.5C 59.8333,51.5 61.1667,51.5 62.5,51.5C 62.8333,51.5 63.1667,51.5 63.5,51.5C 61.7354,52.4614 59.7354,52.7947 57.5,52.5C 57.1778,46.642 57.5111,40.9753 58.5,35.5 Z"/>
  </g>
  <g>
    <path style="opacity:1" fill="#69b933" d="M 62.5,36.5 C 62.5,38.8333 62.5,41.1667 62.5,43.5C 61.6981,44.9516 61.1981,46.6183 61,48.5C 60.6174,47.944 60.1174,47.6107 59.5,47.5C 59.5,46.8333 59.5,46.1667 59.5,45.5C 59.5,42.5 59.5,39.5 59.5,36.5C 60.5,36.5 61.5,36.5 62.5,36.5 Z"/>
  </g>
  <g>
    <path style="opacity:1" fill="#5ea351" d="M 93.5,43.5 C 94.8333,43.5 96.1667,43.5 97.5,43.5C 97.5,45.8333 97.5,48.1667 97.5,50.5C 97.1583,51.3382 96.4916,51.6716 95.5,51.5C 96.6942,49.5156 96.6942,47.5156 95.5,45.5C 94.8165,45.8627 94.1499,46.1961 93.5,46.5C 93.5,45.5 93.5,44.5 93.5,43.5 Z"/>
  </g>
  <g>
    <path style="opacity:0.314" fill="#bae1b1" d="M 93.5,43.5 C 94.9187,42.5489 96.5853,42.2155 98.5,42.5C 98.8064,45.3854 98.4731,48.0521 97.5,50.5C 97.5,48.1667 97.5,45.8333 97.5,43.5C 96.1667,43.5 94.8333,43.5 93.5,43.5 Z"/>
  </g>
  <g>
    <path style="opacity:0.149" fill="#c7efc0" d="M 125.5,42.5 C 125.5,44.5 125.5,46.5 125.5,48.5C 124.833,47.8333 124.167,47.1667 123.5,46.5C 123.5,46.1667 123.5,45.8333 123.5,45.5C 123.5,44.8333 123.5,44.1667 123.5,43.5C 124.167,43.1667 124.833,42.8333 125.5,42.5 Z"/>
  </g>
  <g>
    <path style="opacity:0.231" fill="#c8f7b7" d="M 140.5,42.5 C 140.5,44.5 140.5,46.5 140.5,48.5C 139.833,47.8333 139.167,47.1667 138.5,46.5C 138.5,46.1667 138.5,45.8333 138.5,45.5C 138.5,44.8333 138.5,44.1667 138.5,43.5C 139.167,43.1667 139.833,42.8333 140.5,42.5 Z"/>
  </g>
  <g>
    <path style="opacity:1" fill="#0f1908" d="M 173.5,42.5 C 174.167,44.1667 174.833,45.8333 175.5,47.5C 174.432,48.4345 173.099,48.7678 171.5,48.5C 171.611,47.8826 171.944,47.3826 172.5,47C 171.177,46.1841 170.511,45.0174 170.5,43.5C 171.609,43.4431 172.609,43.1098 173.5,42.5 Z"/>
  </g>
  <g>
    <path style="opacity:1" fill="#465140" d="M 183.5,41.5 C 185.972,44.1191 185.972,46.7857 183.5,49.5C 183.715,47.8212 183.048,46.8212 181.5,46.5C 181.831,44.6776 182.498,43.0109 183.5,41.5 Z"/>
  </g>
  <g>
    <path style="opacity:0.071" fill="#c6d5dd" d="M 223.5,42.5 C 223.5,43.5 223.5,44.5 223.5,45.5C 222.5,45.5 221.5,45.5 220.5,45.5C 221.5,44.5 222.5,43.5 223.5,42.5 Z"/>
  </g>
  <g>
    <path style="opacity:1" fill="#50af28" d="M 78.5,42.5 C 78.8134,45.2469 78.48,47.9135 77.5,50.5C 76.5344,48.604 76.2011,46.604 76.5,44.5C 76.5,43.1667 77.1667,42.5 78.5,42.5 Z"/>
  </g>
  <g>
    <path style="opacity:1" fill="#409c29" d="M 83.5,38.5 C 84.1667,38.5 84.8333,38.5 85.5,38.5C 85.9926,40.8056 86.3259,43.139 86.5,45.5C 86.5,46.5 86.5,47.5 86.5,48.5C 85.8333,48.5 85.1667,48.5 84.5,48.5C 83.5863,45.272 83.2529,41.9387 83.5,38.5 Z"/>
  </g>
  <g>
    <path style="opacity:1" fill="#3d9a30" d="M 101.5,41.5 C 102.209,40.596 103.209,40.2627 104.5,40.5C 105.234,41.7079 105.567,43.0413 105.5,44.5C 104.833,46.5 104.167,48.5 103.5,50.5C 103.5,50.1667 103.5,49.8333 103.5,49.5C 103.244,47.2075 103.577,45.0408 104.5,43C 103.956,42.2828 103.289,41.7828 102.5,41.5C 102.167,41.5 101.833,41.5 101.5,41.5 Z"/>
  </g>
  <g>
    <path style="opacity:0.514" fill="#b2e6aa" d="M 106.5,43.5 C 106.842,42.6618 107.508,42.3284 108.5,42.5C 108.833,42.5 109.167,42.5 109.5,42.5C 109.833,42.5 110.167,42.5 110.5,42.5C 110.5,44.5 110.5,46.5 110.5,48.5C 109.549,47.0813 109.216,45.4147 109.5,43.5C 108.5,43.5 107.5,43.5 106.5,43.5 Z"/>
  </g>
  <g>
    <path style="opacity:0.961" fill="#87c277" d="M 130.5,42.5 C 131.5,43.8333 132.5,43.8333 133.5,42.5C 134.833,43.1667 134.833,43.8333 133.5,44.5C 131.973,44.427 130.973,45.0937 130.5,46.5C 131.167,47.1667 131.833,47.8333 132.5,48.5C 131.5,48.5 130.5,48.5 129.5,48.5C 129.5,46.8333 129.5,45.1667 129.5,43.5C 129.5,42.8333 129.833,42.5 130.5,42.5 Z"/>
  </g>
  <g>
    <path style="opacity:0.947" fill="#5e9251" d="M 133.5,44.5 C 134.568,45.4345 135.901,45.7678 137.5,45.5C 137.833,45.5 138.167,45.5 138.5,45.5C 138.5,45.8333 138.5,46.1667 138.5,46.5C 137.833,46.5 137.167,46.5 136.5,46.5C 136.167,46.5 135.833,46.5 135.5,46.5C 133.833,46.5 132.167,46.5 130.5,46.5C 130.973,45.0937 131.973,44.427 133.5,44.5 Z"/>
  </g>
  <g>
    <path style="opacity:1" fill="#10190a" d="M 164.5,43.5 C 166.856,45.5573 167.856,48.224 167.5,51.5C 166.5,51.5 165.5,51.5 164.5,51.5C 164.5,48.8333 164.5,46.1667 164.5,43.5 Z"/>
  </g>
  <g>
    <path style="opacity:0.157" fill="#cef6c3" d="M 70.5,39.5 C 69.5,39.5 68.5,39.5 67.5,39.5C 66.5166,43.2984 66.1832,47.2984 66.5,51.5C 67.8333,51.5 69.1667,51.5 70.5,51.5C 69.0813,52.4511 67.4147,52.7845 65.5,52.5C 65.5,47.8333 65.5,43.1667 65.5,38.5C 67.4147,38.2155 69.0813,38.5489 70.5,39.5 Z"/>
  </g>
  <g>
    <path style="opacity:0.961" fill="#7baf72" d="M 100.5,44.5 C 100.833,44.5 101.167,44.5 101.5,44.5C 101.025,47.0821 101.692,49.0821 103.5,50.5C 104.167,48.5 104.833,46.5 105.5,44.5C 105.5,47.1667 105.5,49.8333 105.5,52.5C 103.833,52.5 102.167,52.5 100.5,52.5C 100.5,49.8333 100.5,47.1667 100.5,44.5 Z"/>
  </g>
  <g>
    <path style="opacity:1" fill="#499a32" d="M 142.5,43.5 C 143.026,45.2303 144.026,46.5637 145.5,47.5C 145.5,48.5 145.5,49.5 145.5,50.5C 144.833,50.5 144.167,50.5 143.5,50.5C 141.455,48.3035 141.122,45.9702 142.5,43.5 Z"/>
  </g>
  <g>
    <path style="opacity:1" fill="#687164" d="M 170.5,43.5 C 170.511,45.0174 171.177,46.1841 172.5,47C 171.944,47.3826 171.611,47.8826 171.5,48.5C 171.5,48.8333 171.5,49.1667 171.5,49.5C 169.539,47.68 169.206,45.68 170.5,43.5 Z"/>
  </g>
  <g>
    <path style="opacity:1" fill="#343c30" d="M 181.5,46.5 C 183.048,46.8212 183.715,47.8212 183.5,49.5C 183.167,50.5 182.5,51.1667 181.5,51.5C 181.672,50.5084 181.338,49.8417 180.5,49.5C 180.5,49.1667 180.5,48.8333 180.5,48.5C 181.338,48.1583 181.672,47.4916 181.5,46.5 Z"/>
  </g>
  <g>
    <path style="opacity:0.545" fill="#7c898a" d="M 207.5,48.5 C 206.662,48.8417 206.328,49.5084 206.5,50.5C 204.797,46.9116 203.797,47.5783 203.5,52.5C 202.732,51.7375 202.232,50.7375 202,49.5C 201.51,50.7932 201.343,52.1266 201.5,53.5C 200.035,50.3445 200.701,47.5112 203.5,45C 206.172,44.5152 207.505,45.6819 207.5,48.5 Z"/>
  </g>
  <g>
    <path style="opacity:0.741" fill="#7d898c" d="M 210.5,44.5 C 211.919,43.5489 213.585,43.2155 215.5,43.5C 216.62,45.9583 215.953,47.9583 213.5,49.5C 212.602,48.8423 211.602,48.1757 210.5,47.5C 210.624,46.8933 210.957,46.56 211.5,46.5C 212.263,45.7321 213.263,45.2321 214.5,45C 213.207,44.51 211.873,44.3433 210.5,44.5 Z"/>
  </g>
  <g>
    <path style="opacity:0.843" fill="#869497" d="M 224.5,42.5 C 225.156,43.2778 225.989,43.9444 227,44.5C 227.765,44.4301 228.265,44.0967 228.5,43.5C 229.695,43.8656 230.361,44.699 230.5,46C 229.259,47.7309 228.259,49.5642 227.5,51.5C 227.167,51.5 226.833,51.5 226.5,51.5C 226.33,50.1779 226.663,49.0113 227.5,48C 225.19,47.5034 222.857,47.3367 220.5,47.5C 220.5,47.1667 220.5,46.8333 220.5,46.5C 222.857,46.6633 225.19,46.4966 227.5,46C 226.552,45.5172 225.552,45.3505 224.5,45.5C 224.5,44.5 224.5,43.5 224.5,42.5 Z"/>
  </g>
  <g>
    <path style="opacity:0.847" fill="#4f5a5c" d="M 234.5,47.5 C 235.209,46.596 236.209,46.2627 237.5,46.5C 239.377,47.6591 239.877,49.3258 239,51.5C 237.296,53.3734 235.463,55.0401 233.5,56.5C 233.167,56.5 232.833,56.5 232.5,56.5C 233.838,54.3043 235.505,52.3043 237.5,50.5C 237.5,48.5 236.5,47.5 234.5,47.5 Z"/>
  </g>
  <g>
    <path style="opacity:0.98" fill="#7db151" d="M 58.5,45.5 C 58.8333,45.5 59.1667,45.5 59.5,45.5C 59.5,46.1667 59.5,46.8333 59.5,47.5C 59.5,48.5 59.5,49.5 59.5,50.5C 60.5,50.5 61.5,50.5 62.5,50.5C 62.5,50.8333 62.5,51.1667 62.5,51.5C 61.1667,51.5 59.8333,51.5 58.5,51.5C 58.5,49.5 58.5,47.5 58.5,45.5 Z"/>
  </g>
  <g>
    <path style="opacity:1" fill="#7cbe6d" d="M 86.5,45.5 C 86.8333,45.5 87.1667,45.5 87.5,45.5C 89.1417,47.0808 91.1417,47.7475 93.5,47.5C 93.5,48.1667 93.1667,48.5 92.5,48.5C 90.5,48.5 88.5,48.5 86.5,48.5C 86.5,47.5 86.5,46.5 86.5,45.5 Z"/>
  </g>
  <g>
    <path style="opacity:1" fill="#429d2d" d="M 126.5,42.5 C 127.609,42.5569 128.609,42.8902 129.5,43.5C 129.5,45.1667 129.5,46.8333 129.5,48.5C 129.5,48.8333 129.5,49.1667 129.5,49.5C 129.158,50.3382 128.492,50.6716 127.5,50.5C 126.735,47.9039 126.401,45.2372 126.5,42.5 Z"/>
  </g>
  <g>
    <path style="opacity:1" fill="#449e2c" d="M 151.5,45.5 C 151.833,45.5 152.167,45.5 152.5,45.5C 152.5,47.1667 152.5,48.8333 152.5,50.5C 151.5,50.5 150.5,50.5 149.5,50.5C 149.5,49.1667 149.5,47.8333 149.5,46.5C 150.167,46.1667 150.833,45.8333 151.5,45.5 Z"/>
  </g>
  <g>
    <path style="opacity:1" fill="#46565a" d="M 220.5,47.5 C 222.857,47.3367 225.19,47.5034 227.5,48C 226.663,49.0113 226.33,50.1779 226.5,51.5C 226.5,51.8333 226.5,52.1667 226.5,52.5C 222.759,53.4015 220.759,52.0681 220.5,48.5C 220.5,48.1667 220.5,47.8333 220.5,47.5 Z"/>
  </g>
  <g>
    <path style="opacity:0.824" fill="#6b7378" d="M 233.5,45.5 C 235.099,45.2322 236.432,45.5655 237.5,46.5C 236.209,46.2627 235.209,46.596 234.5,47.5C 233.833,48.5 233.167,49.5 232.5,50.5C 232.167,50.5 231.833,50.5 231.5,50.5C 230.833,50.5 230.167,50.5 229.5,50.5C 230.833,48.8333 232.167,47.1667 233.5,45.5 Z"/>
  </g>
  <g>
    <path style="opacity:1" fill="#6bb839" d="M 62.5,43.5 C 62.5,45.8333 62.5,48.1667 62.5,50.5C 61.5,50.5 60.5,50.5 59.5,50.5C 59.5,49.5 59.5,48.5 59.5,47.5C 60.1174,47.6107 60.6174,47.944 61,48.5C 61.1981,46.6183 61.6981,44.9516 62.5,43.5 Z"/>
  </g>
  <g>
    <path style="opacity:1" fill="#77b45a" d="M 67.5,39.5 C 67.5,41.5 67.5,43.5 67.5,45.5C 68.1667,52.1667 68.8333,52.1667 69.5,45.5C 69.5,44.8333 69.5,44.1667 69.5,43.5C 70.1667,43.5 70.8333,43.5 71.5,43.5C 71.8064,46.3854 71.4731,49.0521 70.5,51.5C 69.1667,51.5 67.8333,51.5 66.5,51.5C 66.1832,47.2984 66.5166,43.2984 67.5,39.5 Z"/>
  </g>
  <g>
    <path style="opacity:1" fill="#51ad26" d="M 67.5,45.5 C 68.1667,45.5 68.8333,45.5 69.5,45.5C 68.8333,52.1667 68.1667,52.1667 67.5,45.5 Z"/>
  </g>
  <g>
    <path style="opacity:0.137" fill="#d4f3c6" d="M 79.5,42.5 C 80.4794,45.6248 80.8128,48.9581 80.5,52.5C 78.5,52.5 76.5,52.5 74.5,52.5C 74.5,49.5 74.5,46.5 74.5,43.5C 75.1667,43.5 75.5,43.8333 75.5,44.5C 75.5,46.8333 75.5,49.1667 75.5,51.5C 76.8333,51.5 78.1667,51.5 79.5,51.5C 79.5,48.5 79.5,45.5 79.5,42.5 Z"/>
  </g>
  <g>
    <path style="opacity:1" fill="#5da33f" d="M 78.5,42.5 C 78.8333,42.5 79.1667,42.5 79.5,42.5C 79.5,45.5 79.5,48.5 79.5,51.5C 78.1667,51.5 76.8333,51.5 75.5,51.5C 75.5,49.1667 75.5,46.8333 75.5,44.5C 75.8333,44.5 76.1667,44.5 76.5,44.5C 76.2011,46.604 76.5344,48.604 77.5,50.5C 78.48,47.9135 78.8134,45.2469 78.5,42.5 Z"/>
  </g>
  <g>
    <path style="opacity:1" fill="#67ae56" d="M 84.5,48.5 C 85.1667,48.5 85.8333,48.5 86.5,48.5C 88.5,48.5 90.5,48.5 92.5,48.5C 91.2825,49.1614 89.9492,49.8281 88.5,50.5C 90.396,51.4656 92.396,51.7989 94.5,51.5C 93.5514,52.1524 92.3847,52.4857 91,52.5C 88.7794,52.6068 86.9461,51.9402 85.5,50.5C 85.1667,49.8333 84.8333,49.1667 84.5,48.5 Z"/>
  </g>
  <g>
    <path style="opacity:1" fill="#419e2d" d="M 95.5,51.5 C 95.1667,51.5 94.8333,51.5 94.5,51.5C 92.396,51.7989 90.396,51.4656 88.5,50.5C 89.9492,49.8281 91.2825,49.1614 92.5,48.5C 93.1667,48.5 93.5,48.1667 93.5,47.5C 93.5,47.1667 93.5,46.8333 93.5,46.5C 94.1499,46.1961 94.8165,45.8627 95.5,45.5C 96.6942,47.5156 96.6942,49.5156 95.5,51.5 Z"/>
  </g>
  <g>
    <path style="opacity:0.992" fill="#70ac63" d="M 123.5,45.5 C 123.5,45.8333 123.5,46.1667 123.5,46.5C 120.03,46.7105 120.03,47.8771 123.5,50C 122.956,50.7172 122.289,51.2172 121.5,51.5C 119.844,49.9397 117.844,48.9397 115.5,48.5C 115.5,48.1667 115.5,47.8333 115.5,47.5C 117.103,48.6772 118.436,48.5106 119.5,47C 118.207,46.51 116.873,46.3433 115.5,46.5C 117.361,45.493 120.028,45.1596 123.5,45.5 Z"/>
  </g>
  <g>
    <path style="opacity:1" fill="#77ac66" d="M 135.5,46.5 C 135.833,46.5 136.167,46.5 136.5,46.5C 136.511,48.0174 137.177,49.1841 138.5,50C 137.756,51.0386 136.756,51.5386 135.5,51.5C 134.082,49.6921 132.082,49.0254 129.5,49.5C 129.5,49.1667 129.5,48.8333 129.5,48.5C 130.5,48.5 131.5,48.5 132.5,48.5C 133.71,48.0679 134.71,47.4013 135.5,46.5 Z"/>
  </g>
  <g>
    <path style="opacity:1" fill="#3b4436" d="M 175.5,47.5 C 176.833,47.5 178.167,47.5 179.5,47.5C 179.5,48.1667 179.833,48.5 180.5,48.5C 180.5,48.8333 180.5,49.1667 180.5,49.5C 178.401,49.9717 176.401,49.9717 174.5,49.5C 173.537,49.9698 173.537,50.6365 174.5,51.5C 172.973,51.573 171.973,50.9063 171.5,49.5C 171.5,49.1667 171.5,48.8333 171.5,48.5C 173.099,48.7678 174.432,48.4345 175.5,47.5 Z"/>
  </g>
  <g>
    <path style="opacity:1" fill="#36444a" d="M 210.5,44.5 C 211.873,44.3433 213.207,44.51 214.5,45C 213.263,45.2321 212.263,45.7321 211.5,46.5C 210.957,46.56 210.624,46.8933 210.5,47.5C 211.602,48.1757 212.602,48.8423 213.5,49.5C 212.167,50.8333 210.833,50.8333 209.5,49.5C 209.5,48.1667 209.5,46.8333 209.5,45.5C 209.5,44.8333 209.833,44.5 210.5,44.5 Z"/>
  </g>
  <g>
    <path style="opacity:0.161" fill="#cbd9dd" d="M 234.5,47.5 C 236.5,47.5 237.5,48.5 237.5,50.5C 235.804,48.871 234.804,49.2043 234.5,51.5C 234.167,51.5 233.833,51.5 233.5,51.5C 233.5,50.8333 233.167,50.5 232.5,50.5C 233.167,49.5 233.833,48.5 234.5,47.5 Z"/>
  </g>
  <g>
    <path style="opacity:1" fill="#6ead5a" d="M 129.5,49.5 C 132.082,49.0254 134.082,49.6921 135.5,51.5C 132.66,52.9171 129.993,52.5838 127.5,50.5C 128.492,50.6716 129.158,50.3382 129.5,49.5 Z"/>
  </g>
  <g>
    <path style="opacity:1" fill="#64ae58" d="M 149.5,46.5 C 149.5,47.8333 149.5,49.1667 149.5,50.5C 148.167,50.5 146.833,50.5 145.5,50.5C 145.5,49.5 145.5,48.5 145.5,47.5C 146.959,47.5674 148.292,47.2341 149.5,46.5 Z"/>
  </g>
  <g>
    <path style="opacity:1" fill="#424d3d" d="M 156.5,46.5 C 158.199,46.3398 159.866,46.5065 161.5,47C 162.813,50.692 161.48,52.3587 157.5,52C 155.17,50.5125 154.836,48.6791 156.5,46.5 Z"/>
  </g>
  <g>
    <path style="opacity:0.376" fill="#91a2a7" d="M 222.5,48.5 C 223.675,48.281 224.675,48.6143 225.5,49.5C 223.948,50.7979 222.948,50.4646 222.5,48.5 Z"/>
  </g>
  <g>
    <path style="opacity:1" fill="#83b277" d="M 153.5,34.5 C 153.833,34.5 154.167,34.5 154.5,34.5C 154.5,40.5 154.5,46.5 154.5,52.5C 151.52,51.975 148.687,51.975 146,52.5C 144.124,52.4753 142.624,51.8086 141.5,50.5C 142.167,50.5 142.833,50.5 143.5,50.5C 144.167,50.5 144.833,50.5 145.5,50.5C 146.833,50.5 148.167,50.5 149.5,50.5C 150.5,50.5 151.5,50.5 152.5,50.5C 153.488,45.3595 153.821,40.0262 153.5,34.5 Z"/>
  </g>
  <g>
    <path style="opacity:1" fill="#3c4237" d="M 180.5,49.5 C 181.338,49.8417 181.672,50.5084 181.5,51.5C 179.059,52.7563 176.726,52.7563 174.5,51.5C 173.537,50.6365 173.537,49.9698 174.5,49.5C 176.401,49.9717 178.401,49.9717 180.5,49.5 Z"/>
  </g>
  <g>
    <path style="opacity:0.992" fill="#505a5c" d="M 203.5,52.5 C 204.5,53.1667 205.5,53.8333 206.5,54.5C 206.5,54.8333 206.5,55.1667 206.5,55.5C 204.447,55.5979 202.78,54.9313 201.5,53.5C 201.343,52.1266 201.51,50.7932 202,49.5C 202.232,50.7375 202.732,51.7375 203.5,52.5 Z"/>
  </g>
  <g>
    <path style="opacity:0.808" fill="#737b7f" d="M 209.5,45.5 C 209.5,46.8333 209.5,48.1667 209.5,49.5C 208.935,51.42 207.935,53.0867 206.5,54.5C 205.5,53.8333 204.5,53.1667 203.5,52.5C 205.027,52.573 206.027,51.9063 206.5,50.5C 206.328,49.5084 206.662,48.8417 207.5,48.5C 208.167,47.5 208.833,46.5 209.5,45.5 Z"/>
  </g>
  <g>
    <path style="opacity:0.847" fill="#657174" d="M 212.5,52.5 C 212.5,52.1667 212.5,51.8333 212.5,51.5C 214.415,51.2155 216.081,51.5489 217.5,52.5C 216.508,52.3284 215.842,52.6618 215.5,53.5C 214.662,53.8417 214.328,54.5084 214.5,55.5C 213.833,54.5 213.167,53.5 212.5,52.5 Z"/>
  </g>
  <g>
    <path style="opacity:0.224" fill="#b7c1c5" d="M 237.5,50.5 C 235.505,52.3043 233.838,54.3043 232.5,56.5C 230.265,56.7947 228.265,56.4614 226.5,55.5C 227.167,55.1667 227.833,54.8333 228.5,54.5C 229.251,55.5735 230.251,55.7401 231.5,55C 230.956,54.2828 230.289,53.7828 229.5,53.5C 230.167,52.5 230.833,51.5 231.5,50.5C 231.833,50.5 232.167,50.5 232.5,50.5C 233.167,50.5 233.5,50.8333 233.5,51.5C 233.833,52.8333 234.167,52.8333 234.5,51.5C 234.804,49.2043 235.804,48.871 237.5,50.5 Z"/>
  </g>
  <g>
    <path style="opacity:1" fill="#58676a" d="M 217.5,52.5 C 218.338,52.8417 218.672,53.5084 218.5,54.5C 217.778,55.5511 216.778,56.2178 215.5,56.5C 214.833,56.5 214.5,56.1667 214.5,55.5C 216.698,55.5912 217.031,54.9245 215.5,53.5C 215.842,52.6618 216.508,52.3284 217.5,52.5 Z"/>
  </g>
  <g>
    <path style="opacity:0.804" fill="#566367" d="M 229.5,50.5 C 230.167,50.5 230.833,50.5 231.5,50.5C 230.833,51.5 230.167,52.5 229.5,53.5C 229.5,54.1667 229.167,54.5 228.5,54.5C 227.833,54.8333 227.167,55.1667 226.5,55.5C 225.833,55.5 225.167,55.5 224.5,55.5C 225.167,54.5 225.833,53.5 226.5,52.5C 227.167,52.5 227.5,52.1667 227.5,51.5C 228.167,51.1667 228.833,50.8333 229.5,50.5 Z"/>
  </g>
  <g>
    <path style="opacity:0.38" fill="#a8bbbd" d="M 212.5,51.5 C 212.5,51.8333 212.5,52.1667 212.5,52.5C 212.5,53.8333 212.5,55.1667 212.5,56.5C 210.833,56.5 209.167,56.5 207.5,56.5C 207.167,56.5 206.833,56.5 206.5,56.5C 206.5,56.1667 206.5,55.8333 206.5,55.5C 208.167,55.5 209.833,55.5 211.5,55.5C 211.232,53.901 211.566,52.5676 212.5,51.5 Z"/>
  </g>
  <g>
    <path style="opacity:1" fill="#203134" d="M 212.5,52.5 C 213.167,53.5 213.833,54.5 214.5,55.5C 214.5,56.1667 214.833,56.5 215.5,56.5C 215.5,56.8333 215.5,57.1667 215.5,57.5C 212.941,57.1984 210.607,57.5318 208.5,58.5C 208.5,60.1667 208.5,61.8333 208.5,63.5C 207.49,61.9866 207.157,59.6533 207.5,56.5C 209.167,56.5 210.833,56.5 212.5,56.5C 212.5,55.1667 212.5,53.8333 212.5,52.5 Z"/>
  </g>
  <g>
    <path style="opacity:1" fill="#3b4e50" d="M 218.5,54.5 C 220.265,55.4614 222.265,55.7947 224.5,55.5C 223.833,56.1667 223.167,56.8333 222.5,57.5C 220.167,57.5 217.833,57.5 215.5,57.5C 215.5,57.1667 215.5,56.8333 215.5,56.5C 216.778,56.2178 217.778,55.5511 218.5,54.5 Z"/>
  </g>
  <g>
    <path style="opacity:1" fill="#1b292a" d="M 224.5,55.5 C 225.167,55.5 225.833,55.5 226.5,55.5C 228.265,56.4614 230.265,56.7947 232.5,56.5C 232.806,59.3854 232.473,62.0521 231.5,64.5C 231.5,64.1667 231.5,63.8333 231.5,63.5C 231.5,61.5 231.5,59.5 231.5,57.5C 228.5,57.5 225.5,57.5 222.5,57.5C 223.167,56.8333 223.833,56.1667 224.5,55.5 Z"/>
  </g>
  <g>
    <path style="opacity:0.173" fill="#d1d9dd" d="M 208.5,58.5 C 210.607,57.5318 212.941,57.1984 215.5,57.5C 217.833,57.5 220.167,57.5 222.5,57.5C 225.5,57.5 228.5,57.5 231.5,57.5C 231.5,59.5 231.5,61.5 231.5,63.5C 231.167,63.5 230.833,63.5 230.5,63.5C 230.5,61.8333 230.5,60.1667 230.5,58.5C 223.167,58.5 215.833,58.5 208.5,58.5 Z"/>
  </g>
  <g>
    <path style="opacity:0.698" fill="#5b696b" d="M 206.5,56.5 C 206.833,56.5 207.167,56.5 207.5,56.5C 207.157,59.6533 207.49,61.9866 208.5,63.5C 215.833,63.5 223.167,63.5 230.5,63.5C 230.833,63.5 231.167,63.5 231.5,63.5C 231.5,63.8333 231.5,64.1667 231.5,64.5C 228.615,64.1936 225.948,64.5269 223.5,65.5C 217.833,65.5 212.167,65.5 206.5,65.5C 206.5,62.5 206.5,59.5 206.5,56.5 Z"/>
  </g>
  <g>
    <path style="opacity:0.743" fill="#768085" d="M 232.5,56.5 C 232.833,56.5 233.167,56.5 233.5,56.5C 233.5,59.5 233.5,62.5 233.5,65.5C 230.167,65.5 226.833,65.5 223.5,65.5C 225.948,64.5269 228.615,64.1936 231.5,64.5C 232.473,62.0521 232.806,59.3854 232.5,56.5 Z"/>
  </g>
</svg>


